<svg version="1.1"
    xmlns="http://www.w3.org/2000/svg" viewBox="0 0 40 40" width="144" height="144">
    <!-- svg-source:excalidraw -->

    <defs>
        <style class="style-fonts">
      @font-face {
        font-family: "Virgil";
        src: url("https://excalidraw.com/Virgil.woff2");
      }
      @font-face {
        font-family: "Cascadia";
        src: url("https://excalidraw.com/Cascadia.woff2");
      }
      @font-face {
        font-family: "Assistant";
        src: url("https://excalidraw.com/Assistant-Regular.woff2");
      }
        </style>

    </defs>
    <g stroke-linecap="round" transform="translate(10 10) rotate(0 14.815597941946407 14.815597941946407)">
        <path d="M7.41 0 C13.22 0, 19.03 0, 22.22 0 C27.16 0, 29.63 2.47, 29.63 7.41 C29.63 10.71, 29.63 14, 29.63 22.22 C29.63 27.16, 27.16 29.63, 22.22 29.63 C16.52 29.63, 10.82 29.63, 7.41 29.63 C2.47 29.63, 0 27.16, 0 22.22 C0 17.42, 0 12.62, 0 7.41 C0 2.47, 2.47 0, 7.41 0" stroke="none" stroke-width="0" fill="#e9ecef"></path>
        
    </g>
    <g stroke-linecap="round">
        <g transform="translate(17.840553210073608 16.08963430995783) rotate(0 0 3.1902625352672374)">
            <path d="M0 0 C0 1.06, 0 5.32, 0 6.38 M0 0 C0 1.06, 0 5.32, 0 6.38" stroke="#1e1e1e" stroke-width="1" fill="none"></path>
        </g>
    </g>
    <mask></mask>
    <g stroke-linecap="round">
        <g transform="translate(31.78559181835635 27.672502020988873) rotate(44.99999999999995 0 3.1902625352672374)">
            <path d="M0 0 C0 1.06, 0 5.32, 0 6.38 M0 0 C0 1.06, 0 5.32, 0 6.38" stroke="#1e1e1e" stroke-width="1" fill="none"></path>
        </g>
    </g>
    <mask></mask>
    <g stroke-linecap="round">
        <g transform="translate(14.674306904110836 19.329921251430648) rotate(0 3.1804931937051606 0)">
            <path d="M0 0 C1.06 0, 5.3 0, 6.36 0 M0 0 C1.06 0, 5.3 0, 6.36 0" stroke="#1e1e1e" stroke-width="1" fill="none"></path>
        </g>
    </g>
    <mask></mask>
    <g stroke-linecap="round">
        <g transform="translate(28.57980009873154 30.908211224042105) rotate(44.99999999999995 3.1804931937051606 0)">
            <path d="M0 0 C1.06 0, 5.3 0, 6.36 0 M0 0 C1.06 0, 5.3 0, 6.36 0" stroke="#1e1e1e" stroke-width="1" fill="none"></path>
        </g>
    </g>
    <mask></mask>
    <g stroke-linecap="round">
        <g transform="translate(28.595902649548975 19.27989720342171) rotate(0 3.1804931937051606 0)">
            <path d="M0 0 C1.06 0, 5.3 0, 6.36 0 M0 0 C1.06 0, 5.3 0, 6.36 0" stroke="#1e1e1e" stroke-width="1" fill="none"></path>
        </g>
    </g>
    <mask></mask>
    <g stroke-linecap="round">
        <g transform="translate(14.82034272653459 30.786020938577394) rotate(0 3.1804931937051606 0)">
            <path d="M0 0 C1.06 0, 5.3 0, 6.36 0 M0 0 C1.06 0, 5.3 0, 6.36 0" stroke="#1e1e1e" stroke-width="1" fill="none"></path>
        </g>
    </g>
    <mask></mask>
    <g stroke-linecap="round" transform="translate(17.713325781028402 28.06380294564798) rotate(0 0.12722754720317653 0.103442322656349)">
        <path d="M0.25 0.1 C0.25 0.11, 0.25 0.12, 0.25 0.12 C0.25 0.13, 0.25 0.13, 0.25 0.14 C0.24 0.14, 0.24 0.15, 0.24 0.16 C0.23 0.16, 0.23 0.17, 0.22 0.17 C0.22 0.17, 0.21 0.18, 0.21 0.18 C0.2 0.19, 0.2 0.19, 0.19 0.19 C0.18 0.2, 0.18 0.2, 0.17 0.2 C0.16 0.2, 0.16 0.2, 0.15 0.21 C0.14 0.21, 0.13 0.21, 0.13 0.21 C0.12 0.21, 0.11 0.21, 0.11 0.21 C0.1 0.2, 0.09 0.2, 0.08 0.2 C0.08 0.2, 0.07 0.2, 0.06 0.19 C0.06 0.19, 0.05 0.19, 0.05 0.18 C0.04 0.18, 0.03 0.17, 0.03 0.17 C0.03 0.17, 0.02 0.16, 0.02 0.16 C0.01 0.15, 0.01 0.14, 0.01 0.14 C0.01 0.13, 0 0.13, 0 0.12 C0 0.12, 0 0.11, 0 0.1 C0 0.1, 0 0.09, 0 0.09 C0 0.08, 0.01 0.07, 0.01 0.07 C0.01 0.06, 0.01 0.06, 0.02 0.05 C0.02 0.05, 0.03 0.04, 0.03 0.04 C0.03 0.03, 0.04 0.03, 0.05 0.02 C0.05 0.02, 0.06 0.02, 0.06 0.01 C0.07 0.01, 0.08 0.01, 0.08 0.01 C0.09 0, 0.1 0, 0.11 0 C0.11 0, 0.12 0, 0.13 0 C0.13 0, 0.14 0, 0.15 0 C0.16 0, 0.16 0, 0.17 0.01 C0.18 0.01, 0.18 0.01, 0.19 0.01 C0.2 0.02, 0.2 0.02, 0.21 0.02 C0.21 0.03, 0.22 0.03, 0.22 0.04 C0.23 0.04, 0.23 0.05, 0.24 0.05 C0.24 0.06, 0.24 0.06, 0.25 0.07 C0.25 0.07, 0.25 0.08, 0.25 0.09 C0.25 0.09, 0.25 0.1, 0.25 0.1 C0.25 0.11, 0.25 0.1, 0.25 0.1" stroke="#1e1e1e" stroke-width="1" fill="none"></path>
    </g>
    <g stroke-linecap="round" transform="translate(17.760628292976094 33.30135284615744) rotate(0 0.12010426773764493 0.12010426773767335)">
        <path d="M0.24 0.12 C0.24 0.13, 0.24 0.13, 0.24 0.14 C0.24 0.15, 0.24 0.15, 0.23 0.16 C0.23 0.17, 0.23 0.17, 0.22 0.18 C0.22 0.19, 0.22 0.19, 0.21 0.2 C0.21 0.2, 0.2 0.21, 0.2 0.21 C0.19 0.22, 0.19 0.22, 0.18 0.22 C0.17 0.23, 0.17 0.23, 0.16 0.23 C0.15 0.24, 0.15 0.24, 0.14 0.24 C0.13 0.24, 0.13 0.24, 0.12 0.24 C0.11 0.24, 0.11 0.24, 0.1 0.24 C0.09 0.24, 0.09 0.24, 0.08 0.23 C0.07 0.23, 0.07 0.23, 0.06 0.22 C0.05 0.22, 0.05 0.22, 0.04 0.21 C0.04 0.21, 0.03 0.2, 0.03 0.2 C0.02 0.19, 0.02 0.19, 0.02 0.18 C0.01 0.17, 0.01 0.17, 0.01 0.16 C0 0.15, 0 0.15, 0 0.14 C0 0.13, 0 0.13, 0 0.12 C0 0.11, 0 0.11, 0 0.1 C0 0.09, 0 0.09, 0.01 0.08 C0.01 0.07, 0.01 0.07, 0.02 0.06 C0.02 0.05, 0.02 0.05, 0.03 0.04 C0.03 0.04, 0.04 0.03, 0.04 0.03 C0.05 0.02, 0.05 0.02, 0.06 0.02 C0.07 0.01, 0.07 0.01, 0.08 0.01 C0.09 0, 0.09 0, 0.1 0 C0.11 0, 0.11 0, 0.12 0 C0.13 0, 0.13 0, 0.14 0 C0.15 0, 0.15 0, 0.16 0.01 C0.17 0.01, 0.17 0.01, 0.18 0.02 C0.19 0.02, 0.19 0.02, 0.2 0.03 C0.2 0.03, 0.21 0.04, 0.21 0.04 C0.22 0.05, 0.22 0.05, 0.22 0.06 C0.23 0.07, 0.23 0.07, 0.23 0.08 C0.24 0.09, 0.24 0.09, 0.24 0.1 C0.24 0.11, 0.24 0.12, 0.24 0.12 C0.24 0.12, 0.24 0.12, 0.24 0.12" stroke="#1e1e1e" stroke-width="1" fill="none"></path>
    </g>
</svg>